<svg width="20" height="20" viewBox="0 0 20 20" fill="none" xmlns="http://www.w3.org/2000/svg">
<g clip-path="url(#clip0_303_8623)">
<path fill-rule="evenodd" clip-rule="evenodd" d="M19.9854 0.718765C19.9848 0.525015 19.8973 0.349997 19.7642 0.231247C19.6436 0.099997 19.4736 0.0062561 19.2805 0.0062561L13.7992 0C13.4367 0 13.1429 0.293787 13.1429 0.662537C13.1436 1.02504 13.5673 1.43748 13.7486 1.61873L15.1348 3.01247L11.2498 6.875L13.1248 8.75L16.9836 4.87503L18.3698 6.26877C18.6692 6.57502 18.9736 6.89377 19.3361 6.89377C19.6998 6.89377 19.993 6.59998 19.9923 6.23123L19.9854 0.718765ZM6.87483 11.25L2.96608 15.2375L1.60296 13.875C1.30858 13.5812 1.00858 13.2625 0.652333 13.2625C0.295458 13.2625 0.00670023 13.55 0.00732523 13.9062L0.0142108 19.3C0.0142108 19.4875 0.100456 19.6563 0.231706 19.775C0.350456 19.9063 0.517322 19.9937 0.707322 19.9937L6.09734 20C6.45359 20 6.74233 19.7125 6.74233 19.3562C6.7417 19 6.32545 18.5937 6.1467 18.4187L4.78357 17.0563L8.74983 13.125L6.87483 11.25Z" fill="#0090AF"/>
</g>
<defs>
<clipPath id="clip0_303_8623">
<rect width="20" height="20" fill="white"/>
</clipPath>
</defs>
</svg>
