<svg width="20" height="20" viewBox="0 0 20 20" fill="none" xmlns="http://www.w3.org/2000/svg">
<g clip-path="url(#clip0_303_8597)">
<path fill-rule="evenodd" clip-rule="evenodd" d="M19.9857 0.718765C19.9851 0.525015 19.8976 0.349997 19.7644 0.231247C19.6438 0.099997 19.4738 0.0062561 19.2807 0.0062561L13.7995 0C13.437 0 13.1432 0.293787 13.1432 0.662537C13.1438 1.02504 13.5676 1.43748 13.7488 1.61873L15.1351 3.01247L11.2501 6.875L13.1251 8.75L16.9838 4.87503L18.3701 6.26877C18.6694 6.57502 18.9738 6.89377 19.3363 6.89377C19.7001 6.89377 19.9932 6.59998 19.9926 6.23123L19.9857 0.718765ZM6.87507 11.25L2.96632 15.2375L1.6032 13.875C1.30883 13.5812 1.00883 13.2625 0.652578 13.2625C0.295703 13.2625 0.00694437 13.55 0.00756937 13.9062L0.0144549 19.3C0.0144549 19.4875 0.1007 19.6563 0.23195 19.775C0.3507 19.9063 0.517566 19.9937 0.707566 19.9937L6.09758 20C6.45383 20 6.74257 19.7125 6.74257 19.3562C6.74195 19 6.32569 18.5937 6.14694 18.4187L4.78382 17.0563L8.75007 13.125L6.87507 11.25Z" fill="#0090AF"/>
</g>
<defs>
<clipPath id="clip0_303_8597">
<rect width="20" height="20" fill="white"/>
</clipPath>
</defs>
</svg>
