<svg width="494" height="80" viewBox="0 0 494 80" fill="none" xmlns="http://www.w3.org/2000/svg">
<g filter="url(#filter0_d_303_8627)">
<rect x="4" width="486" height="72" rx="10" fill="white" shape-rendering="crispEdges"/>
<path d="M73.25 29.5V24M73.25 24V18.5M73.25 24H67.375M73.25 24H79.125M74.2292 51.5C57.465 51.5 43.875 38.7774 43.875 23.0833C43.875 22.3753 43.9027 21.6732 43.957 20.9782C44.0194 20.1805 44.0506 19.7816 44.2739 19.4186C44.4589 19.1179 44.7866 18.8327 45.1205 18.682C45.5235 18.5 45.9937 18.5 46.9339 18.5H52.4512C53.2419 18.5 53.6372 18.5 53.9761 18.6218C54.2755 18.7294 54.5421 18.9042 54.7524 19.1309C54.9905 19.3874 55.1256 19.7352 55.3959 20.4309L57.6795 26.3101C57.9938 27.1195 58.1511 27.5242 58.1244 27.9081C58.1009 28.2467 57.9774 28.5725 57.7678 28.8493C57.5302 29.1632 57.1358 29.3847 56.3469 29.8278L53.6667 31.3333C56.0204 36.1897 60.2273 40.1332 65.4167 42.3333L67.0249 39.8242C67.4982 39.0856 67.7347 38.7164 68.07 38.494C68.3657 38.2978 68.7137 38.1821 69.0754 38.1601C69.4855 38.1352 69.9179 38.2824 70.7825 38.5767L77.0625 40.7145C77.8055 40.9675 78.1772 41.094 78.4511 41.3169C78.6932 41.5138 78.88 41.7634 78.9948 42.0437C79.125 42.3608 79.125 42.731 79.125 43.4713V48.6363C79.125 49.5165 79.125 49.9567 78.9305 50.334C78.7696 50.6466 78.465 50.9535 78.1439 51.1266C77.7559 51.3356 77.33 51.3647 76.4779 51.4232C75.7353 51.4741 74.9855 51.5 74.2292 51.5Z" stroke="#04EA7C" stroke-width="5" stroke-linecap="round" stroke-linejoin="round"/>
<path d="M172 15C160.95 15 152 23.1191 152 31.9295C152 37.1059 155.1 42.4773 159.867 45.3845L157 54L166.75 48.1145C168.433 48.4691 170.183 48.6818 172 48.6818C183.05 48.6818 192 40.74 192 31.9295C192 23.1191 183.05 15 172 15ZM162.917 37.6909C162.033 38.5241 160.85 38.9318 159.35 38.9318C158.483 38.9318 157.733 38.8255 157.083 38.6305C156.433 38.4355 155.833 38.1695 155.267 37.8682V34.6064H155.533C156.1 35.1914 156.717 35.6345 157.4 35.9536C158.083 36.2727 158.733 36.4145 159.383 36.4145C159.55 36.4145 159.767 36.3968 160.017 36.3436C160.283 36.3082 160.5 36.2373 160.65 36.1486C160.85 36.0423 161.017 35.9005 161.15 35.7055C161.283 35.5282 161.35 35.28 161.35 34.9609C161.35 34.6241 161.233 34.3405 161.017 34.1277C160.8 33.915 160.533 33.7555 160.217 33.6668C159.833 33.5427 159.433 33.4364 159 33.3123C158.567 33.2059 158.15 33.0641 157.783 32.9045C156.917 32.5323 156.283 32.0359 155.917 31.3977C155.533 30.7595 155.35 29.9795 155.35 29.0223C155.35 27.7459 155.8 26.7 156.683 25.92C157.567 25.1223 158.683 24.7323 160.017 24.7323C160.683 24.7323 161.35 24.8209 162.017 24.9805C162.683 25.14 163.267 25.3705 163.783 25.6541V28.7741H163.55C163.133 28.3664 162.617 27.9941 162.017 27.6927C161.417 27.3914 160.8 27.2318 160.167 27.2318C159.917 27.2318 159.7 27.2495 159.5 27.3027C159.3 27.3559 159.1 27.4268 158.883 27.5509C158.7 27.6573 158.55 27.7991 158.433 27.9941C158.3 28.1891 158.233 28.4018 158.233 28.6323C158.233 28.9868 158.333 29.2527 158.533 29.4655C158.733 29.6782 159.133 29.8555 159.717 30.015C160.1 30.1214 160.45 30.2277 160.817 30.3164C161.15 30.4227 161.533 30.5645 161.933 30.7241C162.717 31.0609 163.3 31.5218 163.667 32.1068C164.05 32.6918 164.233 33.4541 164.233 34.3936C164.233 35.7764 163.8 36.8577 162.917 37.6909ZM177.55 38.6836H174.75V29.6073L172.7 35.4573H170.767L168.717 29.6073V38.6836H166.067V24.9982H169.317L171.817 31.7523L174.3 24.9982H177.55V38.6836ZM187.3 37.6909C186.417 38.5241 185.233 38.9318 183.733 38.9318C182.867 38.9318 182.117 38.8255 181.467 38.6305C180.817 38.4355 180.217 38.1695 179.65 37.8682V34.6064H179.917C180.483 35.1914 181.1 35.6345 181.783 35.9536C182.467 36.2727 183.117 36.4145 183.767 36.4145C183.933 36.4145 184.15 36.3968 184.4 36.3436C184.667 36.3082 184.883 36.2373 185.033 36.1486C185.233 36.0423 185.4 35.9005 185.533 35.7055C185.667 35.5282 185.733 35.28 185.733 34.9609C185.733 34.6241 185.617 34.3405 185.4 34.1277C185.183 33.915 184.917 33.7555 184.6 33.6668C184.217 33.5427 183.817 33.4364 183.383 33.3123C182.95 33.2059 182.533 33.0641 182.167 32.9045C181.3 32.5323 180.667 32.0359 180.3 31.3977C179.917 30.7595 179.733 29.9795 179.733 29.0223C179.733 27.7459 180.183 26.7 181.067 25.92C181.95 25.1223 183.067 24.7323 184.4 24.7323C185.067 24.7323 185.733 24.8209 186.4 24.9805C187.067 25.14 187.65 25.3705 188.167 25.6541V28.7741H187.917C187.5 28.3309 186.983 27.9764 186.383 27.675C185.783 27.3914 185.167 27.2318 184.533 27.2318C184.283 27.2318 184.067 27.2495 183.867 27.3027C183.667 27.3559 183.467 27.4268 183.25 27.5509C183.067 27.6573 182.917 27.7991 182.8 27.9941C182.667 28.1891 182.6 28.4018 182.6 28.65C182.6 29.0045 182.7 29.2705 182.9 29.4832C183.1 29.6959 183.5 29.8732 184.083 30.0327C184.467 30.1391 184.817 30.2455 185.183 30.3341C185.533 30.4405 185.9 30.5645 186.3 30.7418C187.083 31.0786 187.667 31.5395 188.033 32.1245C188.417 32.7095 188.6 33.4718 188.6 34.4114C188.617 35.7764 188.167 36.8577 187.3 37.6909Z" fill="#333333"/>
<g clip-path="url(#clip0_303_8627)">
<path fill-rule="evenodd" clip-rule="evenodd" d="M293.994 15C282.969 15 274 23.7468 274 34.4998C274 38.7644 275.411 42.7193 277.808 45.9294L275.316 53.1743L283.004 50.7789C286.165 52.8194 289.939 54 294.006 54C305.031 54 314 45.2529 314 34.5002C314 23.7471 305.031 15.0003 294.006 15.0003L293.994 15ZM288.411 24.905C288.023 23.9995 287.729 23.9652 287.141 23.9419C286.941 23.9306 286.719 23.9193 286.471 23.9193C285.707 23.9193 284.908 24.137 284.426 24.6184C283.838 25.203 282.381 26.5671 282.381 29.3643C282.381 32.1616 284.473 34.867 284.755 35.2456C285.049 35.6235 288.834 41.4471 294.711 43.8206C299.307 45.6777 300.671 45.5056 301.717 45.2878C303.245 44.9669 305.161 43.8659 305.643 42.5365C306.125 41.2064 306.125 40.0715 305.984 39.8307C305.843 39.59 305.454 39.4529 304.867 39.1659C304.279 38.8792 301.423 37.5035 300.882 37.3201C300.353 37.1253 299.848 37.1942 299.448 37.7446C298.884 38.5126 298.332 39.2924 297.885 39.7622C297.532 40.129 296.956 40.175 296.474 39.9799C295.828 39.7165 294.018 39.097 291.784 37.1596C290.056 35.6581 288.881 33.7897 288.54 33.228C288.199 32.655 288.505 32.3221 288.775 32.0128C289.069 31.6572 289.351 31.4052 289.645 31.0726C289.939 30.7403 290.103 30.5682 290.291 30.1784C290.491 29.8001 290.35 29.4103 290.209 29.1236C290.068 28.837 288.893 26.0397 288.411 24.905Z" fill="#67C15E"/>
</g>
<path d="M401.667 23.3334L416.65 34.1833C419.228 36.05 422.772 36.05 425.35 34.1833L440.333 23.3333" stroke="#060074" stroke-width="5" stroke-linecap="round" stroke-linejoin="round"/>
<path d="M437.917 18.6667H404.083C401.414 18.6667 399.25 20.756 399.25 23.3334V46.6667C399.25 49.244 401.414 51.3334 404.083 51.3334H437.917C440.586 51.3334 442.75 49.244 442.75 46.6667V23.3334C442.75 20.756 440.586 18.6667 437.917 18.6667Z" stroke="#060074" stroke-width="5" stroke-linecap="round"/>
</g>
<defs>
<filter id="filter0_d_303_8627" x="0" y="0" width="494" height="80" filterUnits="userSpaceOnUse" color-interpolation-filters="sRGB">
<feFlood flood-opacity="0" result="BackgroundImageFix"/>
<feColorMatrix in="SourceAlpha" type="matrix" values="0 0 0 0 0 0 0 0 0 0 0 0 0 0 0 0 0 0 127 0" result="hardAlpha"/>
<feOffset dy="4"/>
<feGaussianBlur stdDeviation="2"/>
<feComposite in2="hardAlpha" operator="out"/>
<feColorMatrix type="matrix" values="0 0 0 0 0 0 0 0 0 0 0 0 0 0 0 0 0 0 0.25 0"/>
<feBlend mode="normal" in2="BackgroundImageFix" result="effect1_dropShadow_303_8627"/>
<feBlend mode="normal" in="SourceGraphic" in2="effect1_dropShadow_303_8627" result="shape"/>
</filter>
<clipPath id="clip0_303_8627">
<rect width="40" height="39" fill="white" transform="translate(274 15)"/>
</clipPath>
</defs>
</svg>
