<svg width="32" height="32" viewBox="0 0 32 32" fill="none" xmlns="http://www.w3.org/2000/svg">
<path d="M32.0005 16C32.0005 24.8366 24.837 32 16.0005 32C7.16393 32 0.000488281 24.8366 0.000488281 16C0.000488281 7.16344 7.16393 0 16.0005 0C24.837 0 32.0005 7.16344 32.0005 16Z" fill="#0090AF"/>
<path d="M6.89487 15.2929C6.50435 15.6834 6.50435 16.3166 6.89487 16.7071L13.2588 23.0711C13.6494 23.4616 14.2825 23.4616 14.673 23.0711C15.0636 22.6805 15.0636 22.0474 14.673 21.6569L9.0162 16L14.673 10.3431C15.0636 9.95262 15.0636 9.31946 14.673 8.92893C14.2825 8.53841 13.6494 8.53841 13.2588 8.92893L6.89487 15.2929ZM25.8877 15L7.60198 15V17L25.8877 17V15Z" fill="white"/>
</svg>
