<svg width="32" height="32" viewBox="0 0 32 32" fill="none" xmlns="http://www.w3.org/2000/svg">
<path d="M32.0003 16C32.0003 24.8366 24.8369 32 16.0003 32C7.16378 32 0.00033599 24.8366 0.00033599 16C0.00033599 7.16344 7.16378 0 16.0003 0C24.8369 0 32.0003 7.16344 32.0003 16Z" fill="#0090AF"/>
<path d="M6.89463 15.2929C6.50411 15.6834 6.50411 16.3166 6.89463 16.7071L13.2586 23.0711C13.6491 23.4616 14.2823 23.4616 14.6728 23.0711C15.0633 22.6805 15.0633 22.0474 14.6728 21.6569L9.01595 16L14.6728 10.3431C15.0633 9.95262 15.0633 9.31946 14.6728 8.92893C14.2823 8.53841 13.6491 8.53841 13.2586 8.92893L6.89463 15.2929ZM25.8875 15L7.60174 15V17L25.8875 17V15Z" fill="white"/>
</svg>
