<svg width="48" height="48" viewBox="0 0 48 48" fill="none" xmlns="http://www.w3.org/2000/svg">
<rect x="0.2" y="0.2" width="47.6" height="47.6" rx="6.8" fill="#F5F5F5"/>
<rect x="0.2" y="0.2" width="47.6" height="47.6" rx="6.8" stroke="#333333" stroke-width="0.4"/>
<path d="M6 34H42C43.1046 34 44 34.8954 44 36C44 37.0257 43.2279 37.871 42.2332 37.9865L42 38H6C4.89543 38 4 37.1046 4 36C4 34.9743 4.77208 34.129 5.76676 34.0135L6 34ZM5.99976 22L41.9998 21.9957C43.1043 21.9955 44 22.8909 44 23.9954C44 25.0211 43.2281 25.8665 42.2335 25.9822L42.0002 25.9957L6.00024 26C4.89567 26.0001 4 25.1048 4 24.0002C4 22.9746 4.77187 22.1291 5.76652 22.0135L5.99976 22ZM6 10H42C43.1046 10 44 10.8954 44 12C44 13.0257 43.2279 13.871 42.2332 13.9865L42 14H6C4.89543 14 4 13.1046 4 12C4 10.9743 4.77208 10.129 5.76676 10.0135L6 10Z" fill="#333333"/>
</svg>
