<svg width="121" height="35" viewBox="0 0 121 35" fill="none" xmlns="http://www.w3.org/2000/svg">
<g filter="url(#filter0_d_303_4424)">
<path d="M4 5C4 2.23858 6.23858 0 9 0H112C114.761 0 117 2.23858 117 5V22C117 24.7614 114.761 27 112 27H9C6.23858 27 4 24.7614 4 22V5Z" fill="#F5F5F5"/>
<path d="M4.75 5C4.75 2.65279 6.65279 0.75 9 0.75H112C114.347 0.75 116.25 2.65279 116.25 5V22C116.25 24.3472 114.347 26.25 112 26.25H9C6.65279 26.25 4.75 24.3472 4.75 22V5Z" stroke="#060074" stroke-width="1.5"/>
</g>
<defs>
<filter id="filter0_d_303_4424" x="0" y="0" width="121" height="35" filterUnits="userSpaceOnUse" color-interpolation-filters="sRGB">
<feFlood flood-opacity="0" result="BackgroundImageFix"/>
<feColorMatrix in="SourceAlpha" type="matrix" values="0 0 0 0 0 0 0 0 0 0 0 0 0 0 0 0 0 0 127 0" result="hardAlpha"/>
<feOffset dy="4"/>
<feGaussianBlur stdDeviation="2"/>
<feComposite in2="hardAlpha" operator="out"/>
<feColorMatrix type="matrix" values="0 0 0 0 0 0 0 0 0 0 0 0 0 0 0 0 0 0 0.05 0"/>
<feBlend mode="normal" in2="BackgroundImageFix" result="effect1_dropShadow_303_4424"/>
<feBlend mode="normal" in="SourceGraphic" in2="effect1_dropShadow_303_4424" result="shape"/>
</filter>
</defs>
</svg>
