<svg width="25" height="25" viewBox="0 0 25 25" fill="none" xmlns="http://www.w3.org/2000/svg">
<path d="M11.8955 12.5038H3.57243M3.33652 13.6937L1.96144 18.1734C1.20832 20.6268 0.83176 21.8535 1.102 22.6089C1.33666 23.265 1.84069 23.7623 2.46264 23.9517C3.17882 24.1697 4.26053 23.6388 6.42396 22.5771L20.2935 15.7704C22.4052 14.734 23.4611 14.2159 23.7873 13.496C24.0709 12.8707 24.0709 12.1368 23.7873 11.5114C23.4611 10.7917 22.4052 10.2735 20.2935 9.23715L6.40004 2.41874C4.24312 1.36021 3.16468 0.830939 2.44921 1.04806C1.82786 1.23661 1.32388 1.73266 1.08839 2.38748C0.817226 3.1415 1.18976 4.36558 1.93485 6.81373L3.33919 11.4281C3.46715 11.8486 3.53114 12.0589 3.55639 12.2738C3.57881 12.4647 3.57858 12.6578 3.55572 12.8486C3.52995 13.0635 3.46548 13.2735 3.33652 13.6937Z" stroke="#0090AF" stroke-width="2" stroke-linecap="round" stroke-linejoin="round"/>
</svg>
