<svg width="26" height="27" viewBox="0 0 26 27" fill="none" xmlns="http://www.w3.org/2000/svg">
<path d="M12.9181 0.880478C5.80809 0.880478 0.043457 6.64092 0.043457 13.7458C0.043457 20.8507 5.80809 26.6111 12.9181 26.6111C20.0281 26.6111 25.7928 20.8507 25.7928 13.7458C25.7928 6.64092 20.0281 0.880478 12.9181 0.880478ZM20.114 11.2874L12.0029 19.3926C11.8012 19.5942 11.5287 19.7067 11.2444 19.7067C10.9601 19.7067 10.6865 19.5942 10.4859 19.3926L6.7812 15.6906C6.3617 15.2714 6.3617 14.5938 6.7812 14.1746C7.20069 13.7554 7.87876 13.7554 8.29826 14.1746L11.2444 17.1187L18.5969 9.77148C19.0164 9.35229 19.6945 9.35229 20.114 9.77148C20.5335 10.1907 20.5335 10.8683 20.114 11.2874Z" fill="#04CB04"/>
</svg>
